<svg width="127" height="44" viewBox="0 0 127 44" fill="none" xmlns="http://www.w3.org/2000/svg">
<path d="M2.59668 23.2897L20.2196 40.899V37.1469L2.59668 19.5376V23.2897Z" fill="black"/>
<path d="M29.4992 20.0918L26.7536 17.3417H22.9863L20.2194 14.5916H23.9654L21.2411 11.8415H17.4526L10.1097 4.50781C9.53502 4.74232 8.19414 5.61639 7.81104 5.95749L14.707 12.8435V27.8732L20.2194 33.3735V29.6213L17.4526 26.8712V14.5916H20.2194V27.2123H22.9863V17.3417L25.7319 20.0918V27.191H28.4988V22.842L25.7319 20.0918H29.4992Z" fill="black"/>
<path d="M21.8373 7.47118C21.8373 5.06216 19.8792 3.10083 17.4741 3.10083V11.8415C19.9005 11.8415 21.8373 9.88021 21.8373 7.47118Z" fill="black"/>
<path d="M11.9612 25.1232V13.8456L5.89537 7.79102C5.32071 8.43058 4.74605 9.30465 4.34166 9.98685L9.19435 14.8475V18.621L3.19234 12.6304C2.87308 13.7603 2.68153 14.6983 2.61768 15.8069L11.9399 25.1232H11.9612Z" fill="black"/>
<path d="M86.4969 21.499C89.285 20.8168 89.9023 18.3864 89.9023 17.0433C89.9023 15.7003 89.0722 13.5684 87.71 12.7583C86.6459 12.0974 85.1986 11.8416 82.6871 11.8416H75.9614V31.0285H84.028C86.0286 31.0285 87.2205 30.7513 88.1996 30.1331C89.4766 29.3016 90.2002 27.7241 90.2002 25.9333C90.2002 24.1425 89.7533 23.3963 88.8807 22.5862C88.2634 22.0106 87.7313 21.7548 86.5182 21.499H86.4969ZM80.7503 15.3165H81.8783C84.1131 15.3165 85.0283 15.9561 85.0283 17.5337C85.0283 19.1113 84.1131 19.7721 81.9209 19.7721H80.7503V15.3165ZM82.4742 27.6814H80.729V23.1618H81.8145C83.2617 23.1618 83.73 23.2258 84.2621 23.5029C84.9644 23.8867 85.3263 24.5476 85.3263 25.4643C85.3263 27.0205 84.4749 27.6814 82.453 27.6814H82.4742Z" fill="black"/>
<path d="M118.189 11.8416H112.336L106.312 30.3463L102.077 23.1618C104.971 22.2664 106.227 20.1132 106.227 17.6829C106.227 12.4811 101.523 11.8416 98.9268 11.8416H92.0947V31.0285H96.8836V23.0766L101.204 31.0285H110.973L112.144 27.255H118.274L119.444 31.0285H124.446L118.231 11.8416H118.189ZM98.3309 20.1559H96.8623V15.3165H98.267C100.289 15.3165 101.545 15.8068 101.545 17.6403C101.545 19.4737 100.289 20.1559 98.3309 20.1559ZM113.272 23.439L115.166 17.3205L117.061 23.439H113.251H113.272Z" fill="black"/>
<path d="M61.6377 31.0285H73.6204V27.255H66.2563V23.2897H72.4924V19.5376H66.2563V15.615H73.6204V11.8416H61.6377V31.0285Z" fill="black"/>
<path d="M31.2444 24.1638V27.1911H28.4775C28.4775 29.6001 30.4356 31.5614 32.8407 31.5614C35.2458 31.5614 37.2039 29.6001 37.2039 27.1911L34.1603 24.1638H31.2019H31.2444Z" fill="black"/>
<path d="M47.2712 11.8416L45.2493 15.615H52.5283L44.2915 31.0285H56.9766L58.9986 27.255H51.7195L59.9563 11.8416H47.2712Z" fill="black"/>
</svg>
